<svg width="29" height="41" viewBox="0 0 29 41" fill="none" xmlns="http://www.w3.org/2000/svg">
<path fill-rule="evenodd" clip-rule="evenodd" d="M16.1025 2.009C17.1462 8.93649 19.8531 17.0959 27.394 19.1242C28.1941 19.3391 28.5198 19.9812 28.4877 20.6203C28.5198 21.2602 28.1941 21.9035 27.394 22.1208C19.8531 24.1435 17.1462 32.3029 16.1025 39.2304C15.9704 40.1013 15.3112 40.4221 14.6435 40.3396C13.9621 40.4387 13.2776 40.1198 13.1426 39.2304C12.0932 32.3029 9.38684 24.1435 1.85168 22.1208C1.04913 21.9038 0.72308 21.2602 0.755062 20.6203C0.72308 19.9812 1.04913 19.3391 1.85168 19.1242C9.39257 17.0957 12.0932 8.93624 13.1426 2.00875C13.2748 1.13766 13.9344 0.81686 14.6018 0.899623C15.2836 0.800747 15.9676 1.11984 16.1025 2.009ZM14.6216 32.0156C13.0668 27.3376 10.4575 23.0481 6.2655 20.6223C10.4478 18.2028 13.0611 13.9067 14.6191 9.22506C16.1756 13.9062 18.7879 18.1987 22.9815 20.6223C18.7958 23.0481 16.1806 27.3376 14.6216 32.0156Z" fill="#8DA7B5"/>
</svg>
