<svg width="18" height="26" viewBox="0 0 18 26" fill="none" xmlns="http://www.w3.org/2000/svg">
<path fill-rule="evenodd" clip-rule="evenodd" d="M16.5299 11.6379C16.4405 11.5995 16.3455 11.5702 16.2454 11.5513C12.1889 10.3494 10.8119 5.81901 10.2442 2.0749C10.109 1.18357 9.42172 0.864997 8.73879 0.966319C8.07004 0.88138 7.40902 1.20144 7.27905 2.07484C6.70891 5.84042 5.32215 10.4159 1.22595 11.5668C1.18013 11.5771 1.13543 11.5897 1.0919 11.6043C0.336305 11.8346 0.0278124 12.4588 0.0576253 13.0806C0.027006 13.7192 0.353242 14.3607 1.1542 14.5775C5.30599 15.6891 6.7056 20.3074 7.27905 24.0891C7.41343 24.9922 8.11557 25.3073 8.80696 25.1929C9.46685 25.2672 10.1135 24.9452 10.2442 24.0836C10.8136 20.3229 12.1969 15.7488 16.2806 14.596C16.3433 14.5826 16.4038 14.5651 16.4622 14.5438C17.1915 14.3041 17.4908 13.6899 17.4624 13.0778C17.4899 12.485 17.21 11.8906 16.5299 11.6379ZM12.4464 13.0767C10.8032 11.8626 9.60675 10.1482 8.75923 8.23359C7.91011 10.1497 6.71215 11.8652 5.06691 13.0794C6.71135 14.2938 7.90895 16.0093 8.75799 17.9244C9.60559 16.0085 10.8024 14.292 12.4464 13.0767Z" fill="#8DA7B5"/>
</svg>
