<svg width="60" height="104" viewBox="0 0 60 104" fill="none" xmlns="http://www.w3.org/2000/svg">
<path d="M47.845 58.4563L45.1095 58.1343C46.8367 56.4995 48.3634 54.6652 49.6567 52.6701L49.9547 52.7006C49.2496 54.6111 48.546 56.5234 47.845 58.4379V58.4563ZM43.1095 85.4495L45.541 88.3335C44.5887 87.4268 43.6406 86.5199 42.6963 85.6132L43.116 85.4495H43.1095ZM23.9492 62.3054L25.2439 63.8841C24.1051 64.6274 22.8 65.078 21.4446 65.1956L20.2289 63.9813C21.5297 63.5442 22.6606 62.767 23.9676 62.2752L23.9492 62.3054ZM18.3203 55.372L19.3776 56.6713C18.0098 57.6063 16.3386 58.6202 14.673 58.7355L12.9704 57.1205C14.8176 56.7551 16.6143 56.1681 18.3203 55.372ZM2.95277 46.2649C5.14587 45.7367 7.29882 45.0551 9.39613 44.225L11.1533 46.4289C8.72176 47.0724 6.44805 48.3231 3.94355 48.6813C3.54843 48.311 3.1533 47.9407 2.72778 47.5764C2.78249 47.1393 2.86156 46.7021 2.92843 46.2649H2.95277ZM3.45736 43.3508C4.81391 42.9213 6.12182 42.3513 7.35995 41.6506L8.83692 43.5147C6.96632 44.2532 5.0468 44.8618 3.09228 45.3362C3.2017 44.6804 3.32971 44.0308 3.45736 43.3751V43.3508ZM6.81261 40.9525C5.80513 41.5134 4.74958 41.9828 3.65801 42.355C3.95385 40.9829 4.30598 39.629 4.71529 38.2933C5.40828 39.1797 6.11354 40.0661 6.81261 40.9525ZM33.7971 55.5783C35.4201 54.364 37.0491 53.2166 38.2891 51.6319L41.0976 51.881C39.3834 53.7752 37.4199 56.0216 35.0977 56.8898C35.0638 56.9043 35.0327 56.9249 35.0063 56.9506L34.4958 56.8839L33.7971 55.5783ZM35.0675 51.3284L37.2313 51.5166C36.0671 52.7403 34.773 53.8337 33.3714 54.777L32.5688 53.2835C33.4457 52.69 34.2807 52.0367 35.0675 51.3284ZM31.3412 50.9946L33.876 51.2193C33.3228 51.6746 32.7333 52.0933 32.1497 52.5062L31.3412 50.9946ZM36.5688 57.1267C38.7328 55.9124 40.5564 53.751 42.1977 51.966L44.6292 52.1904C43.0713 54.1494 41.2858 55.9166 39.3102 57.4546C38.3984 57.3514 37.487 57.2421 36.5812 57.1267H36.5688ZM40.5082 57.5942C42.4202 56.0298 44.1434 54.249 45.6443 52.2877L48.6838 52.5669C47.3146 54.5267 45.7486 56.3414 44.0094 57.9826L40.52 57.5942H40.5082ZM27.1347 39.2405C27.2831 39.2598 27.4337 39.2433 27.5745 39.1927C27.7154 39.1422 27.8422 39.0588 27.9444 38.9497C28.0466 38.8405 28.1213 38.7086 28.1623 38.5649C28.2032 38.4211 28.2093 38.2697 28.1801 38.1231C28.2399 37.9252 28.2399 37.714 28.1801 37.516C24.9947 27.6561 20.3748 18.3062 16.5269 8.67702C27.2683 22.6412 38.727 36.0591 48.9942 50.3572C42.4777 49.75 35.9671 49.1428 29.4445 48.5903C29.2513 48.5928 29.062 48.6453 28.8954 48.743C28.7288 48.8407 28.5904 48.9801 28.4941 49.1474C28.3978 49.3146 28.347 49.504 28.3463 49.697C28.3455 49.8899 28.3949 50.0798 28.4899 50.2478C35.9305 64.2322 43.5878 78.0992 51.462 91.8488C36.2648 73.8351 21.2317 55.6332 6.66064 37.1155C13.4872 37.8683 20.3142 38.6028 27.159 39.2099L27.1347 39.2405ZM23.9979 32.3859C24.2127 32.9444 24.4153 33.5029 24.6058 34.0614C23.3414 34.8386 21.9555 35.3911 20.6242 36.0589C20.4479 35.4518 20.2833 34.8144 20.1131 34.1951C21.4463 33.6824 22.7405 33.0737 23.9854 32.3737L23.9979 32.3859ZM22.5328 28.6399C22.9218 29.6113 23.3107 30.5765 23.6815 31.554C22.464 32.2502 21.1987 32.8589 19.8946 33.3754C19.615 32.3352 19.3392 31.2908 19.0677 30.2425C20.2835 29.8115 21.3535 29.1376 22.5328 28.6701V28.6399ZM18.6118 28.4576C19.6735 27.9217 20.7727 27.4633 21.9005 27.0856C22.0039 27.3345 22.1013 27.5833 22.1986 27.8261C21.0618 28.2936 20.0036 28.9372 18.8486 29.3561L18.6118 28.4576ZM25.6084 36.8967L21.6756 36.5264C22.7698 36.0104 23.8821 35.5246 24.9216 34.9114C25.1586 35.5731 25.3835 36.2289 25.6084 36.8967ZM20.8005 24.4626L21.5604 26.284C20.4754 26.6518 19.4167 27.0942 18.3927 27.6076C18.2408 27.0005 18.101 26.3934 17.9612 25.7862C18.9216 25.3795 19.8218 24.839 20.8005 24.4626ZM15.5967 14.9366L16.5388 14.524C16.8671 15.3132 17.2077 16.0964 17.542 16.8796C17.0679 17.0982 16.5935 17.3046 16.1072 17.4867C15.937 16.6367 15.7608 15.7928 15.5967 14.9429V14.9366ZM14.7941 10.3345C15.2561 11.4638 15.7186 12.5932 16.1927 13.7164C15.9435 13.8318 15.6941 13.935 15.4388 14.0443C15.2139 12.83 14.9947 11.573 14.7941 10.3345ZM16.2835 18.361C16.8306 18.1667 17.3599 17.93 17.8887 17.6871L19.1045 20.4436C18.3994 20.7835 17.7 21.1415 16.9644 21.4147C16.7395 20.3947 16.5206 19.3808 16.3079 18.379L16.2835 18.361ZM17.1348 22.289C17.9173 21.9853 18.682 21.6387 19.4263 21.2508L20.4598 23.6793C19.5297 24.0497 18.6665 24.5538 17.7486 24.9485C17.542 24.0742 17.3353 23.1936 17.1407 22.3133L17.1348 22.289ZM4.77049 49.41C7.20204 48.9 9.37785 47.7283 11.779 47.1697C12.0343 47.4915 12.2962 47.807 12.5454 48.1287C10.3205 48.9666 8.04099 49.6527 5.75534 50.3266L4.77049 49.41ZM6.50867 51.0248C8.73353 50.363 10.9588 49.689 13.1289 48.8512L14.0342 49.9807C12.8598 50.4941 11.6563 50.9381 10.4297 51.3103C9.82177 51.541 8.52673 52.2939 7.75472 52.1786L6.53894 51.0248H6.50867ZM8.58166 52.9434C9.13206 52.7786 9.67056 52.5757 10.1928 52.3363C11.67 51.7292 13.2318 51.4317 14.5934 50.6667L15.7611 52.1237C15.7358 52.1312 15.7113 52.1416 15.6881 52.1543C14.0468 53.3686 12.0406 53.7085 10.1744 54.4189L8.58166 52.9254V52.9434ZM10.8796 55.0987C12.7033 54.4551 14.5571 54.0789 16.1316 52.9375C16.1877 52.8933 16.2331 52.8374 16.2651 52.7736L17.767 54.6311C15.9738 55.384 14.168 56.1491 12.2106 56.307H12.1684L10.8796 55.0927V55.0987ZM15.5118 59.4823C17.1153 59.0536 18.6215 58.3221 19.9493 57.3271L21.4262 59.1485C19.9353 59.8021 18.3895 60.3219 16.8065 60.7025L15.5118 59.4882V59.4823ZM17.5664 61.4374C19.0811 61.0167 20.5639 60.4892 22.0038 59.8588C22.4658 60.4234 22.9221 60.9942 23.384 61.5527C22.0589 62.0992 20.8795 62.9308 19.4874 63.2769C18.8491 62.6698 18.2107 62.0626 17.5664 61.4555V61.4374ZM22.2894 65.9545C23.5498 65.7243 24.7502 65.2386 25.8156 64.5277L27.2801 66.3126C26.2562 66.8755 25.1715 67.3196 24.0466 67.6363L22.2894 65.9545ZM24.7518 68.316C25.8402 68.0303 26.8801 67.5864 27.8393 66.9986L29.2379 68.6988C28.1924 69.0327 27.1344 69.3059 26.0827 69.5973L24.7518 68.316ZM26.8242 70.3135C27.8333 70.0403 28.8424 69.7671 29.8636 69.4271L31.2557 71.1211C30.3601 71.4125 29.4607 71.6917 28.557 71.9588L26.8485 70.3135H26.8242ZM29.2557 72.6573C30.1189 72.3962 30.9821 72.135 31.8393 71.8557L32.9642 73.2096C32.2469 73.5557 31.4927 73.8167 30.7511 74.096L29.2557 72.6573ZM31.4445 74.7639C32.1604 74.5216 32.8609 74.2356 33.5418 73.9077L34.7576 75.371C34.1741 75.713 33.5486 75.9784 32.8971 76.1605L31.4504 74.7639H31.4445ZM33.6083 76.8524C34.2127 76.6648 34.7894 76.3973 35.3227 76.057C35.73 76.5488 36.1312 77.0408 36.5385 77.5265C36.0236 77.7164 35.5305 77.9604 35.0675 78.2549L33.6083 76.8524ZM35.7175 78.8864C36.1689 78.6302 36.6486 78.4265 37.1464 78.2792L38.8299 80.2948C38.3983 80.4162 37.9549 80.5196 37.5233 80.6411L35.6997 78.9044L35.7175 78.8864ZM38.2648 81.3149C38.666 81.2117 39.0553 81.1086 39.4444 80.9933C39.8577 81.479 40.265 81.9707 40.6601 82.4625C40.3866 82.5839 40.1191 82.7113 39.8516 82.8449L38.2464 81.3149H38.2648ZM40.5444 83.4944L41.2615 83.1606L42.5325 84.6782C42.3562 84.745 42.1795 84.818 42.0154 84.897L40.5444 83.4944ZM59.5954 102.382L59.6322 102.279C59.6881 102.125 59.702 101.96 59.6732 101.799C59.6444 101.638 59.5735 101.487 59.4678 101.363C51.3181 87.4713 43.4156 73.4263 35.7602 59.2274C40.0154 59.7677 44.3072 60.1925 48.5745 60.7147C48.816 60.7153 49.0507 60.6368 49.243 60.4908C49.4352 60.3449 49.5743 60.14 49.6383 59.9074C50.5299 57.4789 51.4255 55.04 52.3251 52.5913C52.4126 52.3688 52.4126 52.1215 52.3251 51.899C52.3576 51.7726 52.3632 51.6408 52.3412 51.5122C52.3192 51.3835 52.2701 51.2608 52.1975 51.1523C40.1188 34.0674 26.2289 18.3063 13.7612 1.51293C13.7308 1.47043 13.6942 1.43996 13.6638 1.40353L13.6027 1.33683C13.5005 1.24169 13.3807 1.16752 13.25 1.11835C12.5874 0.541567 11.317 0.784267 11.4264 1.87104C12.6421 13.4066 15.2504 25.0212 18.3506 36.2107C13.603 35.7311 8.86138 35.2091 4.11987 34.687C3.28706 34.5959 2.97086 35.3728 3.11068 36.0346C1.86075 39.795 0.995162 43.6722 0.527161 47.6067C0.514955 47.7034 0.514955 47.8013 0.527161 47.8981C0.490611 48.0676 0.501221 48.2439 0.55803 48.4077C0.61484 48.5715 0.715836 48.7166 0.849507 48.8272C20.1074 66.4888 38.4718 85.1156 57.7296 102.777L57.7902 102.832C57.8749 102.934 57.9804 103.018 58.1001 103.076C58.2198 103.134 58.351 103.166 58.4841 103.17C58.6173 103.173 58.7492 103.148 58.8718 103.096C58.9944 103.044 59.1043 102.967 59.1941 102.869C59.3555 102.757 59.4839 102.604 59.5652 102.425L59.5954 102.382Z" fill="#45697E"/>
<path d="M10.332 39.7082C13.0431 43.6121 16.1316 47.261 19.1042 50.9645C21.9734 54.5466 24.7266 58.3291 27.9666 61.5894C28.1064 61.7291 28.3623 61.5408 28.2468 61.3769C25.7788 57.8494 22.97 54.5707 20.2588 51.2376C17.0613 47.3033 13.9248 43.3448 10.5997 39.5016C10.472 39.3559 10.2165 39.5504 10.332 39.7082Z" fill="#45697E"/>
<path d="M45.3535 47.983C42.9219 43.7331 39.3903 39.9626 36.4055 36.1498C33.1108 31.9302 29.5605 27.8504 26.436 23.5094C26.3448 23.3819 26.1322 23.5093 26.2234 23.6368C31.9193 32.1853 38.7579 40.1023 45.0982 48.1772C45.2137 48.3229 45.4386 48.1348 45.3535 47.983Z" fill="#45697E"/>
</svg>
