<svg width="26" height="28" viewBox="0 0 26 28" fill="none" xmlns="http://www.w3.org/2000/svg">
<path fill-rule="evenodd" clip-rule="evenodd" d="M2.09704 7.88232C4.33923 0.387571 13.7147 -1.35425 19.9596 2.47326C27.9019 7.33227 27.208 18.477 20.4127 24.2241C14.5405 29.2263 3.19201 30.2692 1.10473 20.918C0.210081 16.8898 0.34802 11.8933 2.09704 7.88232ZM3.73108 18.0817C3.97192 20.0585 4.4364 22.0868 5.78967 23.399C7.83691 24.4075 9.82129 24.929 12.1379 23.2672C14.6439 21.468 16.8802 18.477 16.8057 15.2454C16.6737 9.94519 14.2313 5.96289 9.64367 4.39856C9.62353 4.41333 9.60229 4.42663 9.58044 4.43872C4.40222 6.19201 3.15771 13.3201 3.73108 18.0817ZM13.4512 24.7284C15.2573 24.287 16.9089 23.3618 18.228 22.0525C22.7353 17.6176 25.3273 8.73608 18.423 5.13769C16.4762 4.1311 14.3064 3.63232 12.115 3.68799C16.932 6.08887 19.6728 13.2456 17.9525 18.2593C17.119 20.8098 15.5538 23.0594 13.4512 24.7284ZM6.53589 17.4285C6.52234 18.2642 6.7196 19.0897 7.10937 19.8292C7.52893 20.4562 8.08581 20.9794 8.73791 21.3591C8.88537 21.3994 9.01098 21.4966 9.08679 21.6293C9.1626 21.762 9.18249 21.9194 9.14221 22.0668C9.1228 22.1378 9.09009 22.2037 9.04651 22.2615C8.99975 22.3236 8.94055 22.3761 8.8717 22.4153C8.73889 22.4911 8.5813 22.511 8.43384 22.4707C6.09411 22.5509 4.60315 19.05 5.92212 17.2622C5.93274 17.2454 5.94482 17.2296 5.95825 17.2151C5.99255 17.1777 6.03515 17.1486 6.08288 17.13C6.14917 17.1042 6.22143 17.1005 6.29004 17.119C6.35876 17.1376 6.42004 17.1777 6.46423 17.2334C6.50842 17.2891 6.53345 17.3574 6.53589 17.4285Z" fill="#8DA7B5"/>
</svg>
