<svg width="26" height="25" viewBox="0 0 26 25" fill="none" xmlns="http://www.w3.org/2000/svg">
<path fill-rule="evenodd" clip-rule="evenodd" d="M4.25182 5.80716C8.65594 1.23465 17.6132 -2.44968 22.6023 3.07974C26.9318 7.88712 25.2801 16.8888 21.1054 21.2263C15.9443 26.5896 5.70815 24.6643 1.99218 18.3614C-0.0837179 14.8261 1.27575 10.2995 3.81612 6.95316C3.80096 6.74197 3.83157 6.52994 3.90685 6.33206C3.98211 6.13419 4.10012 5.95499 4.25182 5.80716ZM9.87713 5.68106C6.36187 7.40005 2.88659 12.4252 4.55535 16.5679C6.40758 21.1175 13.1174 22.401 17.2749 20.1664C14.9065 19.6277 12.2225 17.439 12.2225 15.4106C12.2225 14.4392 12.6024 13.3286 12.9893 12.1979C13.7982 9.83365 14.6374 7.38101 12.0965 5.92752C11.5605 5.6254 10.9798 5.41067 10.3761 5.29153C10.2392 5.45511 10.0691 5.5878 9.87713 5.68106ZM19.7139 17.8758C19.7693 17.7986 19.8252 17.7211 19.8728 17.6396C21.8913 14.024 23.6116 7.86429 19.8269 4.59244C17.7739 2.81045 14.7804 3.08548 12.0393 4.23148C12.5471 4.4274 13.0167 4.71048 13.4271 5.06802C14.1818 5.72696 14.7503 6.57217 15.0763 7.5192C15.4023 8.46622 15.4746 9.48221 15.2851 10.4656C15.1784 10.9064 14.9776 11.4136 14.7639 11.9534C14.1054 13.617 13.3241 15.591 14.7918 16.8888C16.3772 18.2957 17.7158 18.1874 19.4246 18.0491L19.6028 18.0348C19.6378 17.9812 19.6758 17.9286 19.7139 17.8758ZM10.2098 12.273C10.2686 12.3219 10.312 12.3867 10.3352 12.4596C10.5184 12.8976 10.543 13.3579 10.5676 13.8185C10.5861 14.1652 10.6046 14.5119 10.6908 14.849C10.7919 15.2444 11.0051 15.5745 11.2168 15.902C11.4253 16.2248 11.6323 16.5451 11.7291 16.9232C11.7399 16.9619 11.7448 17.0019 11.744 17.0418C11.7437 17.0563 11.7426 17.0708 11.7408 17.0852C11.734 17.1396 11.7165 17.1919 11.6893 17.2394C11.6621 17.2868 11.6258 17.3284 11.5823 17.3617C11.5389 17.3949 11.4891 17.4192 11.4362 17.4331C9.03921 17.7827 8.61504 13.8234 9.61281 12.3679C9.65353 12.3031 9.71218 12.2514 9.78139 12.2187C9.80898 12.2056 9.83782 12.1958 9.86736 12.1894C9.91192 12.1796 9.95803 12.1774 10.0037 12.1833C10.0796 12.1929 10.151 12.224 10.2098 12.273Z" fill="#8DA7B5"/>
</svg>
