<svg width="33" height="31" viewBox="0 0 33 31" fill="none" xmlns="http://www.w3.org/2000/svg">
<path d="M31.4942 6.42735C27.1417 -2.95827 13.4077 1.33921 7.94847 6.67377C7.87954 6.75471 7.81959 6.8431 7.77039 6.93732C6.70697 7.73947 5.69605 8.60838 4.74296 9.53873C4.14595 10.0044 3.63039 10.5659 3.21749 11.2004C0.350222 14.6383 -1.08352 18.7238 1.23896 23.0384C5.86673 31.6333 15.0531 32.2464 22.875 27.5479C29.8196 23.3707 35.1643 14.3518 31.4942 6.42735ZM4.42151 14.4493C5.92396 11.9797 8.60772 9.80802 11.3029 8.08905C14.2964 7.3327 17.5539 7.1608 20.2262 8.66204C23.535 10.5243 22.9209 15.1712 21.4644 17.9617C20.3977 20.0073 18.1844 21.4627 16.0569 22.1674C12.6678 23.3134 8.7968 21.9898 6.26787 19.6463C5.52089 19.0285 4.95489 18.2204 4.62984 17.3076C4.30479 16.3947 4.23294 15.4111 4.42151 14.4607V14.4493ZM20.3175 25.4679C14.1586 29.1694 6.28514 27.8458 3.61286 20.6032C3.51838 20.316 3.44211 20.0232 3.38381 19.7265C3.55732 20.0464 3.74878 20.3563 3.95726 20.6547C5.56975 22.6398 7.77152 24.0618 10.2451 24.7158C12.7186 25.3697 15.3362 25.2218 17.7201 24.2933C23.6324 21.795 26.6144 14.7071 22.8812 9.08031C20.9429 6.18097 17.4158 5.8429 14.0324 6.49611C15.1449 5.88874 16.1889 5.3501 17.0548 4.96619C17.1621 4.90775 17.2604 4.83444 17.3472 4.74845C22.3133 3.24148 27.7383 3.92909 29.4759 9.71059C31.3798 16.0937 25.1803 22.5514 20.3175 25.4794V25.4679Z" fill="#8DA7B5"/>
<path d="M17.5365 10.9254C18.7924 11.4984 19.3543 12.4896 20.4038 13.2918C20.5009 13.3447 20.6145 13.3581 20.7213 13.3293C20.8281 13.3005 20.9199 13.2316 20.9772 13.1371C22.6574 9.87105 16.0166 7.88849 14.0554 9.97992C14.0374 9.99759 14.0246 10.0198 14.0179 10.0441C14.0112 10.0685 14.0109 10.0941 14.0173 10.1185C14.0238 10.143 14.0365 10.1653 14.0543 10.1832C14.0721 10.2012 14.0943 10.214 14.1187 10.2206C15.3287 10.4154 16.4412 10.4211 17.5365 10.9254Z" fill="#8DA7B5"/>
</svg>
