<svg width="32" height="33" viewBox="0 0 32 33" fill="none" xmlns="http://www.w3.org/2000/svg">
<path fill-rule="evenodd" clip-rule="evenodd" d="M24.1575 2.97857C21.9847 1.47979 19.4654 0.559133 16.8376 0.303518C14.2098 0.0479026 11.5604 0.465627 9.13909 1.51739C8.83929 1.49663 8.54064 1.57525 8.29009 1.74102C7.92309 1.97588 7.57909 2.24517 7.23504 2.51446C5.06872 3.84453 3.3045 5.73711 2.12994 7.99053C0.955437 10.2437 0.414727 12.7732 0.56585 15.3094C0.56585 15.3353 0.565789 15.357 0.570062 15.3787C0.574334 15.4 0.582879 15.4212 0.599969 15.4468C0.299249 19.6439 1.65356 23.7918 4.37335 27.0042C10.8706 34.5103 23.4463 33.7654 29.0834 25.6175C33.8774 18.6785 30.8784 7.54522 24.1575 2.97857ZM16.1291 10.8802C16.0467 9.41704 15.5118 8.01543 14.5981 6.86919C12.9293 4.70904 10.4922 4.98418 8.19268 5.7232C8.32763 5.59942 8.4652 5.47686 8.60607 5.35698C8.64623 5.3228 8.6867 5.28887 8.72741 5.25518C8.84124 5.1607 8.95727 5.06817 9.0758 4.97832C11.2772 3.73076 13.812 3.19634 16.3302 3.44854C20.373 5.9124 18.6638 8.55376 16.1291 10.8802ZM6.17999 24.2825C2.33209 19.0626 3.0487 11.5506 7.12023 6.82329L7.2564 6.79619C9.07159 6.43731 10.9362 6.06865 12.6257 6.82329C14.7475 7.76885 15.1662 10.6509 14.2487 12.4847C13.3063 13.2049 12.4151 13.9898 11.5818 14.8338C10.1332 16.4588 9.91369 18.775 9.71905 20.8292L9.71813 20.8387C9.45434 23.6121 9.87274 26.1448 11.0885 28.0127C9.14733 27.231 7.45226 25.9427 6.17999 24.2825ZM26.4116 24.0533C24.5765 27.1761 21.3593 28.7862 17.9358 29.1014H17.8383C11.3755 29.2618 10.7161 21.3716 12.6772 16.9539C13.3039 15.5167 14.6326 14.6578 15.9691 13.7938C17.0785 13.0767 18.1932 12.3563 18.9164 11.2984C20.5908 8.84038 20.6709 6.26763 19.524 4.17046C21.3638 4.83062 23.0301 5.89824 24.3983 7.29326C28.6189 11.6021 29.4394 18.8963 26.4116 24.0533ZM25.2642 14.9197L25.262 15.044C25.2175 17.5335 25.1798 19.6382 23.9163 21.8873C22.6318 24.1734 20.1949 25.6517 17.7864 26.4712C17.7213 26.493 17.6813 26.5445 17.6657 26.6023C17.636 26.7125 17.6949 26.8455 17.8379 26.8379C23.1768 26.4253 28.24 20.0994 25.8315 14.805C25.6996 14.4727 25.27 14.639 25.2642 14.9197ZM24.3068 12.3526C24.2222 11.9988 24.1049 11.6536 23.9568 11.3213C23.8602 11.1556 23.8334 10.9585 23.8823 10.773C23.9312 10.5877 24.052 10.4295 24.2178 10.3328C24.3835 10.2364 24.5805 10.2098 24.766 10.2586C24.9515 10.3074 25.1102 10.428 25.2067 10.5936C25.4095 10.8638 25.5219 11.191 25.527 11.5286C25.5322 11.8663 25.4297 12.1968 25.2353 12.473C25.2078 12.5164 25.1741 12.5555 25.1355 12.5889C25.1003 12.6192 25.061 12.6446 25.0185 12.6646C24.9294 12.7066 24.8301 12.7222 24.7324 12.7095C24.6347 12.6968 24.543 12.6565 24.4675 12.5933C24.4292 12.5613 24.396 12.524 24.3687 12.4827C24.3422 12.4427 24.3213 12.399 24.3068 12.3526Z" fill="#8DA7B5"/>
</svg>
