<svg width="41" height="42" viewBox="0 0 41 42" fill="none" xmlns="http://www.w3.org/2000/svg">
<g clip-path="url(#clip0_12000_543)">
<path d="M24.4441 0.339611C8.48995 -2.7577 -4.19166 16.0248 1.29754 29.0435C4.06928 38.1201 14.0834 43.5362 23.4213 41.6148C45.4408 37.1055 47.862 4.89448 24.4441 0.339611ZM21.5221 23.9421C17.2977 28.0829 12.7353 27.4245 9.90093 24.6999C8.65745 23.485 7.78182 21.9487 7.37311 20.2655C6.9644 18.5823 7.03891 16.8194 7.58835 15.1761C8.20397 13.2931 9.46857 11.6852 11.1601 10.635C12.8517 9.5847 14.8622 9.15908 16.8387 9.43276C20.7583 9.96278 23.9847 13.6025 24.1225 17.5156C24.1549 18.7074 23.9389 19.8931 23.4878 20.9983C23.0367 22.1034 22.3605 23.1041 21.5013 23.9378L21.5221 23.9421ZM31.077 29.8468C29.0357 31.8343 26.8402 31.5238 25.471 30.2071C24.8732 29.621 24.4524 28.8809 24.2562 28.0701C24.06 27.2594 24.0961 26.4104 24.3606 25.619C24.6568 24.7116 25.2665 23.937 26.0821 23.4318C26.8976 22.9265 27.8666 22.723 28.8186 22.8572C29.5794 22.9709 30.2933 23.2934 30.8792 23.788C31.4652 24.2827 31.9 24.93 32.1348 25.6568C32.3696 26.3836 32.3951 27.161 32.2082 27.9013C32.0213 28.6417 31.6293 29.3155 31.077 29.8468Z" fill="#789CB1"/>
</g>
<defs>
<clipPath id="clip0_12000_543">
<rect width="41" height="42" fill="white"/>
</clipPath>
</defs>
</svg>
