<svg width="29" height="29" viewBox="0 0 29 29" fill="none" xmlns="http://www.w3.org/2000/svg">
<path d="M27.3155 9.11211C25.5663 7.65351 22.9338 8.00881 20.6559 8.31554C20.9775 6.21479 21.3829 3.6087 20.3453 2.01108C19.2086 0.258986 16.8955 0.0736132 14.9855 0.0118265C13.1262 -0.0499601 10.3901 0.0802568 9.09693 1.63596C7.64076 3.38805 7.99536 6.02722 8.30158 8.3067C6.20434 7.98453 3.60267 7.57848 2.00772 8.61782C0.258555 9.75646 0.0734921 12.0757 0.0118088 13.9889C-0.0498745 15.8513 0.0800708 18.592 1.63317 19.8851C3.38233 21.3437 6.01719 20.9884 8.29286 20.6817C7.97123 22.7847 7.56581 25.3907 8.60341 26.9883C9.74014 28.7404 12.0555 28.9236 13.9633 28.9876C15.8248 29.0494 18.5587 28.9191 19.8518 27.3634C21.308 25.5981 20.9533 22.9722 20.6471 20.6927C22.7443 21.0127 25.3482 21.4187 26.9432 20.3794C28.6923 19.2407 28.8752 16.9237 28.9391 15.0105C28.9986 13.1481 28.8708 10.4074 27.3155 9.11211ZM25.2205 17.888C23.3942 18.3757 21.0039 17.7335 19.16 17.5438C18.9663 17.513 18.7682 17.5299 18.5824 17.5929C18.3967 17.656 18.229 17.7633 18.0938 17.9057C17.8849 18.026 17.7174 18.2072 17.6139 18.4252C17.5104 18.6432 17.4757 18.8877 17.5145 19.126C17.6907 20.9972 18.1753 23.0009 17.8339 24.8766C17.5959 26.1763 15.4106 26.0262 14.3708 26.0483C13.591 26.0637 11.3351 26.1829 11.0906 25.2627C10.6037 23.4334 11.247 21.0392 11.4343 19.1922C11.4413 18.9796 11.4058 18.7676 11.3299 18.5689C11.254 18.3702 11.1392 18.1887 10.9923 18.0352C10.8453 17.8816 10.6691 17.759 10.4741 17.6746C10.2791 17.5902 10.0693 17.5457 9.85689 17.5438C7.98656 17.7203 5.98625 18.2058 4.11592 17.8638C2.81617 17.6255 2.96827 15.4365 2.94624 14.3949C2.93082 13.6138 2.80961 11.3541 3.72825 11.1092C5.55452 10.6237 7.94475 11.2658 9.79084 11.4556C9.98421 11.4864 10.1821 11.4695 10.3675 11.4065C10.5529 11.3434 10.7202 11.2361 10.8549 11.0937C11.0632 10.9727 11.23 10.7914 11.3335 10.5736C11.4369 10.3558 11.4721 10.1117 11.4343 9.87346C11.258 8 10.7734 5.99633 11.117 4.12287C11.355 2.82094 13.5403 2.97319 14.5779 2.95112C15.36 2.93567 17.6136 2.81432 17.8582 3.7345C18.345 5.56382 17.7039 7.95806 17.5145 9.80725C17.4832 10.0009 17.4997 10.1994 17.5627 10.3852C17.6257 10.571 17.7332 10.7385 17.8758 10.873C17.9956 11.0826 18.1764 11.2505 18.3942 11.3542C18.6119 11.4579 18.8561 11.4925 19.094 11.4534C20.9621 11.2769 22.9624 10.7914 24.835 11.1357C26.1325 11.374 25.9827 13.563 26.0048 14.6023C26.0202 15.3857 26.1391 17.6431 25.2205 17.888Z" fill="white"/>
</svg>
