<svg width="30" height="29" viewBox="0 0 30 29" fill="none" xmlns="http://www.w3.org/2000/svg">
<path d="M21.6446 16.5385L17.809 16.6417C17.8374 17.9167 17.8718 19.1937 17.9123 20.4727C17.9974 23.7634 12.885 23.8971 12.7999 20.6064C12.7634 19.3254 12.7331 18.0504 12.6966 16.7754L8.86112 16.8785C5.56637 16.9635 5.42613 11.8576 8.72695 11.7665L12.5631 11.6693C12.5347 10.3943 12.5003 9.1194 12.4598 7.84441C12.3747 4.55373 17.4871 4.41396 17.5722 7.71071C17.6087 8.9857 17.639 10.2609 17.6755 11.5359L21.511 11.4386C24.7997 11.3475 24.9332 16.4535 21.6446 16.5385ZM28.4168 9.59882C27.795 7.82384 26.8695 6.17026 25.6813 4.71149C24.3273 3.03406 22.565 1.73172 20.5629 0.929046C18.8434 0.249445 17.0002 -0.0627121 15.1525 0.0124125C13.0228 0.0913565 10.9307 0.597033 9.00062 1.49972C7.35184 2.24213 5.84773 3.26984 4.55723 4.5354C3.15638 5.91108 2.11302 7.60765 1.51779 9.47758C1.09738 10.8326 0.912107 12.2494 0.970457 13.6668C1.03753 15.2924 1.35523 16.8978 1.91256 18.4266C2.57961 20.4197 3.6101 22.2722 4.952 23.8908C6.15022 25.3423 7.66644 26.4995 9.38352 27.2728C11.4841 28.1927 13.7929 28.5344 16.0703 28.2623C19.6061 27.8177 22.9159 26.2856 25.5412 23.8787C26.3001 23.1624 26.9698 22.3574 27.5352 21.4807C28.5847 19.8781 29.2274 18.0441 29.4076 16.1377C29.5861 13.9226 29.2617 11.6958 28.4589 9.62313L28.4168 9.59882Z" fill="#45697E"/>
</svg>
