<svg width="106" height="64" viewBox="0 0 106 64" fill="none" xmlns="http://www.w3.org/2000/svg">
<path d="M104.35 1.40821L103.988 1.35666C103.789 1.24189 103.555 1.20125 103.329 1.24202H103.277C87.5989 -1.11871 71.2673 1.24207 55.8127 4.02109C44.2405 6.12397 31.4235 8.24978 20.6541 13.189C20.5474 13.2346 20.4514 13.302 20.3724 13.3869C20.2934 13.4717 20.2333 13.5722 20.1954 13.6817C19.9629 13.831 19.7949 14.0621 19.725 14.3292C19.6954 14.3911 19.6746 14.4566 19.6623 14.524C19.3947 16.816 19.1115 19.108 18.8133 21.3999C18.7648 21.408 18.7169 21.4195 18.67 21.4343C12.2817 24.643 5.99093 28.8832 1.17967 34.2465C1.07429 34.3556 0.997813 34.4891 0.95678 34.6351C0.915748 34.7811 0.911348 34.935 0.94446 35.083C0.887129 35.3135 0.908885 35.5564 1.0055 35.7734C1.10212 35.9903 1.26844 36.1688 1.47815 36.2805C1.56418 36.4066 1.68043 36.5091 1.8164 36.5785C6.40402 39.0538 10.9915 41.5292 15.6308 43.9529C14.7132 50.1241 13.9104 56.3124 12.9298 62.4721C12.9015 62.6679 12.9283 62.8676 13.0071 63.049C13.0859 63.2304 13.2137 63.3864 13.3762 63.4994C13.5386 63.6124 13.7296 63.678 13.9272 63.6888C14.1249 63.6996 14.3212 63.6553 14.4951 63.5607C14.585 63.5315 14.6703 63.4891 14.7476 63.4347C20.0979 59.2862 25.5285 55.2638 30.9017 51.1555C38.0527 54.4158 45.2382 57.5272 52.5899 60.3234C52.749 60.3836 52.9221 60.3975 53.0888 60.3635C53.295 60.3664 53.4958 60.3003 53.6601 60.1756C53.8243 60.051 53.9425 59.8751 53.9949 59.6759C61.1975 35.2836 84.4507 17.4635 104.424 3.48244C104.535 3.40598 104.63 3.30758 104.702 3.19329C104.774 3.07899 104.822 2.95119 104.843 2.81775C105.221 2.35935 105.152 1.55719 104.35 1.40821ZM30.592 49.15C30.4207 49.1593 30.2563 49.2213 30.1216 49.3276C25.1613 53.1208 20.155 56.8567 15.2119 60.6614C16.0778 55.0117 16.8176 49.3391 17.672 43.6836C17.6969 43.5351 17.6885 43.3828 17.6468 43.238C17.6051 43.0932 17.5313 42.9597 17.4312 42.8471C17.3428 42.7059 17.2181 42.5911 17.07 42.5147C12.9354 40.3545 8.82387 38.1428 4.71222 35.9368C9.29984 35.0505 13.8686 34.1605 18.418 33.2666C18.6044 33.2302 18.7735 33.1336 18.8996 32.9916C19.0237 32.933 19.1302 32.8429 19.2087 32.7303C19.2872 32.6177 19.3345 32.4865 19.3465 32.3498C20.069 27.1852 20.7439 22.0131 21.3709 16.8332C25.2188 21.0332 28.9519 25.3364 32.5073 29.7886C32.6073 29.9353 32.7552 30.0429 32.9256 30.093C33.096 30.1432 33.2783 30.1328 33.4419 30.0636C33.6034 30.1074 33.7739 30.1074 33.9353 30.0636C39.6393 28.8488 45.3301 27.5711 51.0073 26.2303C47.2122 30.9387 43.795 35.9393 40.7882 41.1854C40.7109 41.3221 40.6678 41.4753 40.6622 41.6323C40.6184 41.7617 40.6066 41.8999 40.6286 42.0347C40.6506 42.1696 40.7055 42.297 40.7882 42.4059C44.1945 47.2935 47.3943 52.29 50.445 57.3953C43.9765 54.8398 37.5995 52.0722 31.2685 49.1786C31.0534 49.0896 30.8139 49.0795 30.592 49.15ZM53.1118 23.7263C47.297 25.1244 41.4646 26.4308 35.6154 27.6914C51.5172 13.7734 72.4826 5.78012 93.4881 3.39074C78.6128 7.2126 65.1027 13.59 53.1118 23.7263ZM54.1321 25.5083C54.1553 25.4714 54.1766 25.433 54.1954 25.3937C67.3332 14.1745 82.3866 7.70539 99.0339 4.11845C89.8185 8.26692 80.9811 13.2864 72.3908 18.6037C62.7682 24.5342 53.3122 30.9918 44.762 38.435C47.5643 33.9026 50.6961 29.5821 54.1321 25.5083ZM92.0948 2.25049C70.6649 4.91491 49.3958 13.315 33.4481 27.8404C29.8277 23.3366 26.0578 18.9685 22.1392 14.736C32.2721 10.1521 44.2518 8.24399 55.0556 6.18121C67.0178 3.9007 79.691 1.92388 92.0948 2.25049ZM18.5154 23.8007C18.1828 26.3448 17.8365 28.889 17.4771 31.433C13.0501 32.3078 8.61761 33.1711 4.17909 34.023C8.41884 29.9178 13.2515 26.4719 18.5154 23.8007ZM52.6873 57.3152C49.5792 52.0742 46.2972 46.9458 42.8412 41.9302C52.0451 33.4614 62.4529 26.3277 73.0561 19.744C80.6718 14.9375 88.5541 10.5662 96.6651 6.65111C78.5898 19.7898 59.7752 36.0113 52.6873 57.3152Z" fill="#8DA7B5"/>
<path d="M82.9895 15.63C76.2571 20.1624 70.5051 26.1444 65.2695 32.2926C60.3951 38.0226 55.9625 44.3255 52.8601 51.2014C52.7913 51.3619 53.0264 51.5051 53.1009 51.3389C59.7874 37.4725 71.1591 25.2849 83.1328 15.8134C83.2418 15.7331 83.1328 15.5555 82.9895 15.63Z" fill="#8DA7B5"/>
<path d="M27.0314 15.7788C37.6689 11.6934 48.7538 9.87133 59.7182 7.09804C59.9476 7.04074 59.8443 6.73128 59.6263 6.75992C48.4107 8.29371 37.4303 11.2195 26.9395 15.4695C26.7618 15.5497 26.8364 15.882 27.0314 15.7788Z" fill="#8DA7B5"/>
<path d="M61.1973 6.71418C61.5017 6.64169 61.8101 6.58619 62.1208 6.54799C62.2469 6.54799 62.3329 6.35893 62.1952 6.29018C61.9745 6.14768 61.7102 6.08872 61.4499 6.12399C61.0026 6.2042 61.031 6.27299 60.7442 6.57667C60.7347 6.5897 60.7291 6.60531 60.7286 6.62144C60.728 6.63757 60.7328 6.6535 60.7414 6.66711C60.7501 6.68073 60.7624 6.69139 60.7773 6.69775C60.7921 6.70411 60.8085 6.70582 60.8243 6.70271C60.9562 6.64541 61.0711 6.71418 61.1973 6.71418Z" fill="#8DA7B5"/>
<path d="M38.0591 31.1466C36.4248 31.2039 34.8475 31.7196 33.196 31.7196C31.4355 31.7654 29.8757 29.9204 28.6543 28.8546C28.5912 28.7973 28.4534 28.8546 28.4935 28.952C29.239 30.8315 29.8756 32.7911 31.9343 33.45C33.8725 34.0631 36.5506 32.5848 38.2423 31.731C38.2951 31.6902 38.3343 31.6342 38.3543 31.5705C38.3743 31.5069 38.3743 31.4387 38.3543 31.375C38.3343 31.3114 38.2951 31.2553 38.2423 31.2145C38.1895 31.1737 38.1258 31.15 38.0591 31.1466Z" fill="#8DA7B5"/>
<path d="M26.7497 48.6973C23.0796 50.0381 19.7135 53.3958 17.305 56.404C17.1559 56.5931 17.345 56.8968 17.5744 56.7535C19.1285 55.7909 20.5109 54.5876 22.0019 53.5391C23.8718 52.3246 25.5625 50.855 27.0252 49.1729C27.18 48.9723 27.0479 48.5884 26.7497 48.6973Z" fill="#8DA7B5"/>
</svg>
