<svg width="16" height="16" viewBox="0 0 16 16" fill="none" xmlns="http://www.w3.org/2000/svg">
	<path d="M12.759 5.03089C12.2605 5.03089 11.7621 5.03089 11.2636 5.03089H10.9472C10.7952 4.36304 10.6678 3.69533 10.4551 3.05177C9.23929 -0.37248 7.76207 -0.512204 6.45512 3.11847C6.25451 3.72561 6.12655 4.38124 5.98674 5.01874L5.68279 5.04927C5.1904 5.04927 4.69182 5.04927 4.19335 5.04927C0.995867 5.04927 -0.56626 6.26352 3.12361 8.97135C3.42756 9.19599 3.7315 9.41448 4.03544 9.64519C4.1327 9.71805 4.23025 9.78475 4.32751 9.86368C4.06004 10.6044 3.81038 11.3575 3.58546 12.1164C2.75874 15.0975 3.82302 16.0323 6.5038 14.387C7.16639 13.9438 7.79857 13.4582 8.45509 13.0028C8.66767 13.132 8.87081 13.276 9.06297 13.4339C9.51281 13.7799 9.96844 14.1016 10.4426 14.4113C12.8012 15.832 14.023 14.6481 13.3301 12.1588C13.1112 11.4181 12.8683 10.6835 12.6129 9.95498C12.6025 9.92303 12.588 9.89222 12.5702 9.86368L13.7011 9.03212C17.5308 6.2393 15.9925 5.04927 12.7281 5.04927L12.759 5.03089Z" fill="#45697E"/>
</svg>