<svg width="33" height="35" viewBox="0 0 33 35" fill="none" xmlns="http://www.w3.org/2000/svg">
	<path d="M25.2597 2.22227C21.4964 2.374 17.8869 7.91055 14.4051 4.15638C12.7326 2.4397 7.85212 -1.73344 6.48896 2.85112C5.95006 4.66925 6.26524 6.52304 6.63228 8.33797C7.01774 10.2487 7.66999 11.5469 6.23498 13.1907C4.79998 14.8344 2.74666 15.7697 1.30668 17.4733C-1.4 20.6718 0.843599 23.8303 4.33667 24.2912C6.0118 24.5113 7.62101 23.9412 9.32086 24.185C10.8881 24.4042 11.0678 26.7443 11.4187 27.9932C11.9254 29.7815 12.5662 32.5134 14.3484 33.4713C20.4698 36.7436 18.6906 23.9457 21.2986 23.5494C22.884 23.31 34.2334 27.0418 32.5312 21.0545C31.8539 18.6855 29.9382 17.0804 28.3006 15.3833C24.8324 11.7883 28.936 8.73519 28.1875 4.80942C27.8883 3.24612 26.9429 2.1544 25.2597 2.22227ZM24.2128 8.91334C23.7737 10.4187 23.0985 12.695 23.7331 14.2518C24.3158 15.6808 25.0717 16.6766 26.0974 17.8141C27.0823 18.9059 28.1495 19.8382 29.0224 21.0205C29.747 22.0035 25.3425 20.8812 24.9585 20.8142C21.7555 20.2662 18.9869 19.5884 17.6286 23.2904C17.4676 23.7284 15.6628 30.1149 15.5386 29.9217C14.5162 28.3454 14.2534 25.9772 13.6309 24.2077C12.3461 20.6035 9.14161 20.6082 5.81987 21.021C0.873843 21.6327 7.30708 16.5683 8.59031 15.4359C9.59358 14.4982 10.226 13.2163 10.3663 11.8364C10.553 10.3658 10.0547 8.786 9.72782 7.37645C9.45305 6.32107 9.36571 5.22241 9.47 4.13265C9.47409 4.09915 11.9984 6.37969 12.2001 6.58558C14.4958 9.05956 16.8368 9.42819 19.906 8.17292C21.8134 7.39079 25.4833 4.53952 24.2128 8.91334Z" fill="white"/>
</svg>