<svg width="45" height="45" viewBox="0 0 45 45" fill="none" xmlns="http://www.w3.org/2000/svg">
<path d="M23.4098 30.8793C23.254 30.7126 23.0661 30.5793 22.8571 30.4874C22.6481 30.3956 22.4223 30.3472 22.194 30.3451H22.0545C21.8265 30.3461 21.601 30.3937 21.392 30.4845C21.183 30.5753 20.9948 30.7075 20.8387 30.8734L12.0909 39.604L4.50477 32.0207L13.252 23.2901C13.4181 23.1342 13.5505 22.9463 13.6415 22.7376C13.7324 22.5288 13.78 22.3035 13.781 22.0759V21.9365C13.7786 21.7091 13.7305 21.484 13.6397 21.2755C13.5488 21.0669 13.417 20.879 13.252 20.7223L4.50477 11.9852L12.0909 4.40254L20.8387 13.139C20.9948 13.3049 21.183 13.4371 21.392 13.528C21.601 13.6188 21.8265 13.6663 22.0545 13.6673H22.194C22.4218 13.6656 22.647 13.6181 22.8559 13.5274C23.0648 13.4366 23.2532 13.3044 23.4098 13.139L32.1576 4.40254L39.7437 11.9852L31.0024 20.7223C30.8368 20.8786 30.7045 21.0668 30.6136 21.2755C30.5227 21.4841 30.4751 21.709 30.4735 21.9365V22.0759C30.4758 22.3033 30.5239 22.5284 30.6148 22.737C30.7056 22.9455 30.8374 23.1334 31.0024 23.2901L39.7497 32.0272L32.1576 39.604C29.2479 36.6897 26.3336 33.7796 23.4157 30.8734L23.4098 30.8793ZM43.6101 30.74L34.8688 22.0095L43.6101 13.2724C43.9516 12.9309 44.1432 12.4679 44.1432 11.9852C44.1432 11.5025 43.9516 11.0401 43.6101 10.6986L33.4399 0.53501C33.0979 0.19392 32.6344 0.00198797 32.1511 0.00198797C31.6678 0.00198797 31.2042 0.19392 30.8623 0.53501L22.115 9.27148L13.3737 0.53501C13.2043 0.365207 13.0029 0.230286 12.7813 0.138356C12.5596 0.0464262 12.322 -0.000976562 12.082 -0.000976562C11.8419 -0.000976562 11.6043 0.0464262 11.3827 0.138356C11.161 0.230286 10.9596 0.365207 10.7902 0.53501L0.620001 10.6986C0.27849 11.0401 0.0869141 11.5025 0.0869141 11.9852C0.0869141 12.4679 0.27849 12.9309 0.620001 13.2724L9.36785 22.0095L0.620001 30.74C0.27849 31.0815 0.0869141 31.5445 0.0869141 32.0272C0.0869141 32.5099 0.27849 32.9729 0.620001 33.3144L10.7902 43.4774C10.9596 43.6472 11.161 43.7821 11.3827 43.8741C11.6043 43.966 11.8419 44.0134 12.082 44.0134C12.322 44.0134 12.5596 43.966 12.7813 43.8741C13.0029 43.7821 13.2043 43.6472 13.3737 43.4774L22.121 34.7409L30.8623 43.4774C31.0317 43.6472 31.2331 43.7821 31.4548 43.8741C31.6764 43.966 31.914 44.0134 32.1541 44.0134C32.3941 44.0134 32.6317 43.966 32.8534 43.8741C33.075 43.7821 33.2764 43.6472 33.4458 43.4774L43.6101 33.3203C43.7801 33.1511 43.9146 32.95 44.0066 32.7286C44.0987 32.5072 44.1461 32.2699 44.1461 32.0302C44.1461 31.7905 44.0987 31.5531 44.0066 31.3317C43.9146 31.1103 43.7801 30.9092 43.6101 30.74Z" fill="#45697E"/>
</svg>
