<svg width="31" height="32" viewBox="0 0 31 32" fill="none" xmlns="http://www.w3.org/2000/svg">
<path d="M30.5742 21.4365L24.6394 15.5009C26.6177 13.5253 28.5952 11.5475 30.572 9.5675C30.8441 9.29062 30.9965 8.91796 30.9965 8.52977C30.9965 8.14158 30.8441 7.76892 30.572 7.49204L23.5071 0.426196C23.2299 0.153978 22.8569 0.00146484 22.4684 0.00146484C22.0799 0.00146484 21.707 0.153978 21.4298 0.426196L15.4972 6.35953C13.5189 4.38099 11.5414 2.40326 9.56456 0.426196C9.28735 0.153978 8.9144 0.00146484 8.52591 0.00146484C8.13741 0.00146484 7.76446 0.153978 7.48725 0.426196C5.13743 2.77635 2.78319 5.13092 0.424555 7.48989C0.152375 7.76714 -0.000116033 8.14014 -0.000116033 8.52869C-0.000116033 8.91725 0.152375 9.29024 0.424555 9.5675C2.39987 11.546 4.37743 13.5239 6.35716 15.5009L0.424555 21.4343C0.151849 21.7113 -0.000976563 22.0845 -0.000976562 22.4732C-0.000976563 22.8619 0.151849 23.235 0.424555 23.512L7.48725 30.5778C7.76446 30.8501 8.13741 31.0026 8.52591 31.0026C8.9144 31.0026 9.28735 30.8501 9.56456 30.5778L15.4994 24.6445L21.4342 30.5778C21.711 30.8499 22.0836 31.0025 22.4718 31.0025C22.8599 31.0025 23.2325 30.8499 23.5093 30.5778L30.5742 23.5143C30.8464 23.237 30.9989 22.8639 30.9989 22.4753C30.9989 22.0868 30.8464 21.7138 30.5742 21.4365ZM16.5392 21.5313C16.4126 21.3969 16.2601 21.2897 16.0908 21.2162C15.9215 21.1427 15.7391 21.1044 15.5545 21.1038H15.4443C15.2598 21.1042 15.0771 21.1424 14.9078 21.2159C14.7385 21.2894 14.5859 21.3967 14.4596 21.5313L8.52698 27.4625L3.53957 22.4743C5.51782 20.4987 7.49527 18.5208 9.47206 16.5408C9.60668 16.414 9.71406 16.2612 9.78755 16.0915C9.86103 15.9217 9.89907 15.7387 9.89942 15.5538V15.4436C9.89792 15.2598 9.85938 15.0783 9.78594 14.9098C9.71249 14.7413 9.60568 14.5894 9.47206 14.4632C7.4938 12.4847 5.51635 10.5068 3.53957 8.52977C5.20059 6.86704 6.86301 5.20427 8.52698 3.54154C10.5052 5.51714 12.4828 7.49498 14.4596 9.47498C14.5864 9.60963 14.7393 9.71702 14.909 9.79052C15.0787 9.86401 15.2616 9.90205 15.4465 9.9024H15.5611C15.7438 9.9001 15.9243 9.86128 16.0919 9.78826C16.2595 9.71524 16.4109 9.60944 16.537 9.47713C18.5153 7.4986 20.4927 5.52087 22.4695 3.5438C24.1335 5.20506 25.796 6.86783 27.457 8.53203L21.5267 14.4654C21.3927 14.5917 21.2857 14.744 21.2123 14.9129C21.1388 15.0818 21.1004 15.2638 21.0993 15.448C21.0993 15.4656 21.0993 15.4855 21.0993 15.5054C21.0993 15.5252 21.0993 15.5406 21.0993 15.5604C21.1004 15.7446 21.1388 15.9266 21.2123 16.0955C21.2857 16.2644 21.3927 16.4167 21.5267 16.5431C23.502 18.5216 25.4796 20.4993 27.4593 22.4764L22.4718 27.4646L16.5392 21.5313Z" fill="#FFC700"/>
</svg>
